<svg xmlns="http://www.w3.org/2000/svg" viewBox="0 0 175.55 283.89"><defs><style>.cls-1{fill:#fff;}</style></defs><g id="Calque_2" data-name="Calque 2"><g id="Calque_1-2" data-name="Calque 1"><path class="cls-1" d="M24.52,271.65c41.93,5.48,84.23,8.16,126,0-37,17.61-88.41,15-126,0Z"/><path class="cls-1" d="M150.91,12.24c-41.93-5.49-84.23-8.16-126,0,37-17.61,88.41-15,126,0Z"/><path class="cls-1" d="M88.51,3.58C91.28,22,91.92,40.5,92,59.06c-.08,18.55-.71,37.05-3.5,55.47C85.72,96.11,85.09,77.61,85,59.06c.09-18.56.72-37.06,3.5-55.48Z"/><path class="cls-1" d="M175.14,28.1c-2.27,32.72-21,65.89-45.63,87.13a117.47,117.47,0,0,1-28.09,18c16.06-12.9,30.47-27,42.49-43.64A227.88,227.88,0,0,0,175.14,28.1Z"/><path class="cls-1" d="M0,28.1C16.83,67,41.17,104,74.56,130.62c7.09,5.67,15.12,10.43,22.68,15.44a182.63,182.63,0,0,1,46.15,46.34c14.13,20.39,25.31,42.94,31.75,66.91A268.84,268.84,0,0,0,130.34,185c-11.86-13.68-25.43-26-40.78-35.68-2-1.23-5.89-3.75-7.84-5a182,182,0,0,1-22.08-17.57C31.76,100.05,11,65,0,28.1Z"/><path class="cls-1" d="M0,259.31c2.27-32.72,21-65.89,45.63-87.13a117.47,117.47,0,0,1,28.09-18c-16.06,12.9-30.47,27-42.49,43.64A227.88,227.88,0,0,0,0,259.31Z"/><path class="cls-1" d="M175.55,259.31c-32.62,2.18-67.1-9.79-88.86-34.78l2.64,1.21h-.82l2.64-1.21c-22.28,25.58-57.9,37-91.15,34.78,32.3-3.44,65.49-15.27,87-40.57H90.9a105.58,105.58,0,0,0,17.07,16c19.6,14.33,43.5,22,67.58,24.56Z"/></g></g></svg>