<svg xmlns="http://www.w3.org/2000/svg" xmlns:xlink="http://www.w3.org/1999/xlink" viewBox="0 0 175.55 283.89"><defs><style>.cls-1{fill:#612482;}.cls-2{fill:url(#Dégradé_sans_nom_57);}</style><linearGradient id="Dégradé_sans_nom_57" x1="-3.33" y1="143.71" x2="178.49" y2="143.71" gradientUnits="userSpaceOnUse"><stop offset="0"/><stop offset="1" stop-color="#612482"/></linearGradient></defs><g id="Calque_2" data-name="Calque 2"><g id="Calque_1-2" data-name="Calque 1"><path d="M24.52,271.65c41.93,5.48,84.23,8.16,126,0-37,17.61-88.41,15-126,0Z"/><path class="cls-1" d="M150.91,12.24c-41.93-5.49-84.23-8.16-126,0,37-17.61,88.41-15,126,0Z"/><path class="cls-1" d="M88.51,3.58C91.28,22,91.92,40.5,92,59.06c-.08,18.55-.71,37.05-3.5,55.47C85.72,96.11,85.09,77.61,85,59.06c.09-18.56.72-37.06,3.5-55.48Z"/><path d="M175.14,28.1c-2.27,32.72-21,65.89-45.63,87.13a117.47,117.47,0,0,1-28.09,18c16.06-12.9,30.47-27,42.49-43.64A227.88,227.88,0,0,0,175.14,28.1Z"/><path class="cls-2" d="M0,28.1A291.62,291.62,0,0,0,16.47,61c3.06,5.3,6.26,10.52,9.64,15.6S33,86.73,36.69,91.56s7.55,9.54,11.57,14.09c2,2.3,4.08,4.49,6.16,6.7,1,1.1,2.13,2.15,3.2,3.23l1.61,1.6,1.65,1.55c4.36,4.2,9,8.13,13.68,11.89,2.41,1.81,4.77,3.69,7.28,5.37,1.24.84,2.45,1.75,3.73,2.55L89.38,141l3.91,2.52c1.32.86,2.67,1.67,3.95,2.58,2.56,1.83,5.16,3.6,7.61,5.56a163.7,163.7,0,0,1,14.27,12.26,196.69,196.69,0,0,1,24.27,28.52,227.72,227.72,0,0,1,18.77,32.18c2.64,5.61,5.12,11.3,7.3,17.09a158.88,158.88,0,0,1,5.68,17.64q-1.68-4.32-3.57-8.52c-1.25-2.81-2.53-5.6-3.89-8.35-2.69-5.52-5.51-11-8.57-16.27s-6.19-10.55-9.56-15.63-6.84-10.1-10.57-14.91c-.91-1.22-1.88-2.39-2.82-3.58l-1.42-1.79-1.47-1.74c-1-1.15-1.92-2.35-2.93-3.49l-3-3.41c-4.09-4.48-8.29-8.86-12.77-12.92a176.7,176.7,0,0,0-13.86-11.64c-2.38-1.87-4.89-3.54-7.35-5.27-1.24-.86-2.54-1.62-3.8-2.44l-3.87-2.45-4-2.57c-1.32-.85-2.57-1.8-3.87-2.69-2.6-1.77-5-3.75-7.53-5.66-1.24-1-2.42-2-3.63-3s-2.41-2-3.56-3.07l-3.49-3.15c-1.14-1.08-2.24-2.19-3.36-3.28l-1.67-1.66L53,120.12c-1.07-1.14-2.16-2.26-3.21-3.41-2.08-2.34-4.19-4.65-6.16-7.07s-3.94-4.84-5.86-7.29-3.72-5-5.47-7.59A240.07,240.07,0,0,1,13.45,62.64C10.77,57.05,8.23,51.4,6,45.64A172.44,172.44,0,0,1,0,28.1Z"/><path class="cls-1" d="M0,259.31c2.27-32.72,21-65.89,45.63-87.13a117.47,117.47,0,0,1,28.09-18c-16.06,12.9-30.47,27-42.49,43.64A227.88,227.88,0,0,0,0,259.31Z"/><path class="cls-1" d="M175.55,259.31c-32.62,2.18-67.1-9.79-88.86-34.78l2.64,1.21h-.82l2.64-1.21c-22.28,25.58-57.9,37-91.15,34.78,32.3-3.44,65.49-15.27,87-40.57H90.9a105.58,105.58,0,0,0,17.07,16c19.6,14.33,43.5,22,67.58,24.56Z"/></g></g></svg>