<svg xmlns="http://www.w3.org/2000/svg" viewBox="0 0 560.43 104.81"><defs><style>.cls-1{fill:#fff;}</style></defs><g id="Calque_2" data-name="Calque 2"><g id="Calque_1-2" data-name="Calque 1"><path class="cls-1" d="M8.85,98.69c6.78-.38,15.8,0,22.56.07,7.58.21,14.66-.08,22.4-.07-12.36,8.59-32.35,7.72-45,0Z"/><path class="cls-1" d="M54,6.12c-6.77.38-15.79,0-22.55-.07-7.59-.21-14.66.08-22.4.07,12.36-8.59,32.35-7.72,45,0Z"/><path class="cls-1" d="M31.69,3c4.05,11.73,4.08,27.86,0,39.59C27.61,30.9,27.63,14.77,31.69,3Z"/><path class="cls-1" d="M62.6,11.79c1.39,16-10.82,33.34-26.31,37.49,4.57-5.35,8.94-9.9,12.91-15.49,5.19-7,9.2-14.24,13.4-22Z"/><path class="cls-1" d="M.11,11.79C7.3,25.18,15.86,37.68,27.81,47c3.35,2.7,7.39,4.84,10.75,7.52l2.67,2.19A65.42,65.42,0,0,1,52.37,69.6,67.85,67.85,0,0,1,62.6,94.28C56.89,83,50,72.86,41,64.22c-1.81-1.61-4-3.58-6-5-1.42-1.14-3.69-2.5-5.21-3.55C14.49,45.92,4,29.26.11,11.79Z"/><path class="cls-1" d="M.11,94.28c-1.39-16,10.81-33.34,26.3-37.49-4.57,5.35-8.94,9.9-12.91,15.49-5.18,7-9.2,14.24-13.39,22Z"/><path class="cls-1" d="M62.74,94.28A36,36,0,0,1,29.72,83l2.26,1h-.29L34,83C27.72,90.17,18.48,94.2,9.14,94.82a32.94,32.94,0,0,1-9-.54c2.92-.67,5.73-1.45,8.46-2.37,7.87-2.63,15.35-6.57,20.85-12.82l1-1c.22,0,1.37,0,1.56,0h1.3c.56.58,1.75,1.87,2.31,2.45,7.3,7.54,16.9,11.32,27.15,13.76Z"/><path class="cls-1" d="M103.69,31.12H86.81V22.57h43.1v8.55H113v55h-9.33Z"/><path class="cls-1" d="M141,22.57h0a4.4,4.4,0,0,1,4.4,4.4v.27a4.4,4.4,0,0,1-4.4,4.4h0a4.4,4.4,0,0,1-4.4-4.4V27A4.4,4.4,0,0,1,141,22.57Zm-4.4,18.32h8.8V86.15h-8.8Z"/><path class="cls-1" d="M158.32,40.89h8.82v4.79h.17a14.66,14.66,0,0,1,11.81-5.36,17,17,0,0,1,7.59,1.61,23,23,0,0,1,5.19,4.32q5.32-6,14.26-5.93a15.54,15.54,0,0,1,10.3,4q4.62,4,4.79,11.77V86.15h-8.81v-27c0-3.18-.84-5.59-2.53-7.25a8.8,8.8,0,0,0-6.52-2.53,8.94,8.94,0,0,0-6.56,2.53c-1.75,1.66-2.62,4.07-2.62,7.25v27h-8.8v-27c0-3.18-.84-5.59-2.53-7.25a9,9,0,0,0-6.57-2.53,8.82,8.82,0,0,0-6.52,2.53c-1.77,1.66-2.66,4.07-2.66,7.25v27h-8.81Z"/><path class="cls-1" d="M242.28,67q0,5.46,3.05,8.29a9.94,9.94,0,0,0,7.43,2.88,13,13,0,0,0,9.6-4.41l6.38,5.63Q262,86.76,253,86.67a22.14,22.14,0,0,1-6.76-1A16.5,16.5,0,0,1,243,84.1a15.43,15.43,0,0,1-3.08-2A18,18,0,0,1,235.38,75a28.81,28.81,0,0,1-1.9-11.34,32.36,32.36,0,0,1,1.65-11.16,19.44,19.44,0,0,1,4.22-7.15,15.57,15.57,0,0,1,5.87-3.84,18.18,18.18,0,0,1,6.33-1.18,17.94,17.94,0,0,1,12.71,5.1q5.28,5.11,5.36,14V67Zm18.54-7.49q-.17-5.31-2.75-8a9.5,9.5,0,0,0-13,0q-2.49,2.71-2.75,8Z"/><path class="cls-1" d="M276.46,22.57h9.84L296,67.77h.17l11.95-45.2h6.76l11.91,45.2h.17l9.71-45.2h9.84L331.11,86.15h-7.82L311.55,40.3h-.17L299.6,86.15h-7.77Z"/><path class="cls-1" d="M360.8,67q0,5.46,3.05,8.29a9.94,9.94,0,0,0,7.44,2.88,13,13,0,0,0,9.59-4.41l6.38,5.63q-6.72,7.41-15.79,7.32a22.14,22.14,0,0,1-6.76-1,16.5,16.5,0,0,1-3.21-1.53,15.43,15.43,0,0,1-3.08-2A18,18,0,0,1,353.9,75,28.81,28.81,0,0,1,352,63.65a32.36,32.36,0,0,1,1.65-11.16,19.58,19.58,0,0,1,4.22-7.15,15.57,15.57,0,0,1,5.87-3.84,18.18,18.18,0,0,1,6.33-1.18,17.94,17.94,0,0,1,12.71,5.1q5.28,5.11,5.36,14V67Zm18.55-7.49q-.18-5.31-2.76-8a9.49,9.49,0,0,0-13,0q-2.51,2.71-2.76,8Z"/><path class="cls-1" d="M422.75,82.14h-.17a7.4,7.4,0,0,1-3.79,3.4,17.51,17.51,0,0,1-7,1.13q-7.35-.08-11.32-4a12.74,12.74,0,0,1-4.18-9.81,13.06,13.06,0,0,1,3.63-9.46q3.63-3.84,10.64-3.92h12.2V54.69q.09-6-9-5.83a15.7,15.7,0,0,0-5.2.7,6.43,6.43,0,0,0-3.12,2.81l-6.93-5.46q5-6.76,14.81-6.59,8.28-.09,13.21,3.23t5,11.68V86.15h-8.8Zm0-15.18H412.18q-7.71.18-7.62,5.45a4.87,4.87,0,0,0,2,3.93q1.9,1.78,6.3,1.79,5.55.09,7.83-1.35,2.07-1.44,2.07-6.55Z"/><path class="cls-1" d="M439,40.89h9.33l10.29,31.72h.17l10.25-31.72h9.37L462.38,86.15h-7.26Z"/><path class="cls-1" d="M491.9,67q0,5.46,3.05,8.29a9.94,9.94,0,0,0,7.43,2.88,13,13,0,0,0,9.6-4.41l6.38,5.63q-6.72,7.41-15.79,7.32a22.14,22.14,0,0,1-6.76-1,16.23,16.23,0,0,1-3.21-1.53,15.15,15.15,0,0,1-3.08-2A18,18,0,0,1,485,75a28.81,28.81,0,0,1-1.9-11.34,32.36,32.36,0,0,1,1.65-11.16A19.44,19.44,0,0,1,489,45.34a15.57,15.57,0,0,1,5.87-3.84,18.18,18.18,0,0,1,6.33-1.18,17.94,17.94,0,0,1,12.71,5.1q5.28,5.11,5.36,14V67Zm18.54-7.49q-.17-5.31-2.75-8a9.5,9.5,0,0,0-13,0q-2.49,2.71-2.75,8Z"/><path class="cls-1" d="M530.83,40.89h8.8v4.79h.18a14.43,14.43,0,0,1,20.62-1.88L554,51.66a9.07,9.07,0,0,0-5.8-2.27,8.13,8.13,0,0,0-5.79,2.27q-2.7,2.22-2.79,7.2V86.15h-8.8Z"/></g></g></svg>