<svg id="Calque_1" data-name="Calque 1" xmlns="http://www.w3.org/2000/svg" viewBox="0 0 175.95 292.74"><defs><style>.cls-1{fill:#fff;}</style></defs><path class="cls-1" d="M136.54,331.47c11.1-.46,21.63-.22,32.13-.05s20.79.55,31.08.69c5.14.09,10.28.16,15.42.15h7.72c2.57-.06,5.16,0,7.74-.09l7.8-.12c1.31,0,2.6-.1,3.92-.11s2.64,0,4-.1c5.31-.09,10.62-.43,16.23-.38-9.07,6.51-19.57,10.58-30.28,13.2-2.68.69-5.39,1.16-8.11,1.68s-5.45.84-8.19,1.08a133.52,133.52,0,0,1-16.48.68,145.09,145.09,0,0,1-32.5-4.25,130.88,130.88,0,0,1-15.64-5c-2.55-1-5.07-2.1-7.55-3.32A61,61,0,0,1,136.54,331.47Z" transform="translate(-111.62 -55.39)"/><path class="cls-1" d="M262.93,72.05c-11.1.47-21.63.23-32.12,0s-20.79-.55-31.08-.69c-5.15-.08-10.29-.15-15.43-.15h-7.72c-2.57.06-5.16,0-7.74.09l-7.8.12c-1.31,0-2.6.09-3.92.1s-2.64,0-4,.1c-5.3.09-10.61.43-16.23.38,9.07-6.51,19.57-10.57,30.28-13.19,2.68-.7,5.39-1.17,8.11-1.68s5.45-.85,8.2-1.09A133.35,133.35,0,0,1,200,55.42a145,145,0,0,1,32.5,4.24,132.77,132.77,0,0,1,15.64,5c2.55,1,5.07,2.09,7.55,3.32A61,61,0,0,1,262.93,72.05Z" transform="translate(-111.62 -55.39)"/><path class="cls-1" d="M200.53,63.4c.89,2.31,1.58,4.62,2.22,6.93s1.18,4.62,1.69,6.94c1,4.62,1.74,9.24,2.37,13.87a220.56,220.56,0,0,1,1.72,27.73,216.87,216.87,0,0,1-1.7,27.74q-.89,6.94-2.37,13.87c-.51,2.31-1.05,4.62-1.7,6.94s-1.34,4.62-2.23,6.93c-.89-2.31-1.59-4.62-2.23-6.93s-1.19-4.63-1.7-6.94q-1.48-6.93-2.37-13.87a216.87,216.87,0,0,1-1.7-27.74,220.56,220.56,0,0,1,1.72-27.73c.63-4.63,1.37-9.25,2.37-13.87.51-2.32,1-4.63,1.69-6.94S199.64,65.71,200.53,63.4Z" transform="translate(-111.62 -55.39)"/><path class="cls-1" d="M287.16,87.92a49.69,49.69,0,0,1,.36,8.61,84.47,84.47,0,0,1-.74,8.56A104.47,104.47,0,0,1,283,121.82a115.42,115.42,0,0,1-15.26,30.82,112.36,112.36,0,0,1-23.73,25c-1.14.87-2.33,1.7-3.49,2.53s-2.35,1.65-3.59,2.38-2.43,1.52-3.67,2.25-2.52,1.37-3.78,2a75.89,75.89,0,0,1-16,6.2c7.61-8.63,15-16.41,21.88-24.55,3.39-4.1,6.76-8.13,10-12.31s6.33-8.34,9.29-12.65,5.88-8.66,8.7-13.11,5.51-9,8.18-13.6C276.82,107.55,281.87,98.06,287.16,87.92Z" transform="translate(-111.62 -55.39)"/><path class="cls-1" d="M112,87.92c5.68,11,11.85,21.64,18.42,31.9a327.29,327.29,0,0,0,21.14,29.47c3.75,4.69,7.67,9.22,11.71,13.59s8.23,8.61,12.58,12.61A182.58,182.58,0,0,0,203.78,197l3.95,2.55c1.35.89,2.73,1.73,4.05,2.66,2.63,1.88,5.3,3.69,7.81,5.71a167.29,167.29,0,0,1,14.49,12.72,185.62,185.62,0,0,1,24.2,29.52,208.7,208.7,0,0,1,17.87,33.27c2.43,5.78,4.62,11.64,6.49,17.61a134,134,0,0,1,4.52,18.14,346.35,346.35,0,0,0-18-32.12,305.3,305.3,0,0,0-21-29.46c-.92-1.18-1.91-2.3-2.86-3.45l-1.44-1.72-1.49-1.68c-1-1.11-1.94-2.26-3-3.36l-3-3.28c-4.14-4.27-8.26-8.53-12.7-12.43A173,173,0,0,0,210,220.44c-2.31-1.81-4.75-3.43-7.15-5.11-1.2-.83-2.47-1.57-3.69-2.37l-3.84-2.43-4.07-2.63c-1.36-.88-2.65-1.85-4-2.77-2.67-1.83-5.19-3.84-7.72-5.82-1.26-1-2.46-2.08-3.69-3.12s-2.45-2.08-3.61-3.18l-3.54-3.26c-1.16-1.11-2.27-2.27-3.4-3.4l-1.69-1.7L162,182.89c-1.08-1.18-2.18-2.33-3.24-3.52-2.1-2.4-4.18-4.82-6.14-7.32s-3.91-5-5.81-7.55-3.66-5.17-5.38-7.83a219.14,219.14,0,0,1-17.91-33.18c-2.48-5.75-4.73-11.59-6.68-17.52A143,143,0,0,1,112,87.92Z" transform="translate(-111.62 -55.39)"/><path class="cls-1" d="M112,319.13a49.76,49.76,0,0,1-.36-8.62,84.29,84.29,0,0,1,.75-8.55,102.12,102.12,0,0,1,3.83-16.73,115.12,115.12,0,0,1,15.26-30.82,112.58,112.58,0,0,1,23.72-25c1.15-.87,2.33-1.69,3.5-2.52s2.34-1.65,3.59-2.39,2.43-1.51,3.66-2.24,2.52-1.37,3.79-2a76.19,76.19,0,0,1,16-6.19c-7.61,8.62-15,16.41-21.89,24.55-3.38,4.1-6.75,8.13-9.94,12.3s-6.33,8.35-9.29,12.66-5.88,8.66-8.7,13.11-5.51,9-8.19,13.59C122.37,299.5,117.32,309,112,319.13Z" transform="translate(-111.62 -55.39)"/><path class="cls-1" d="M287.57,319.13a70.35,70.35,0,0,1-12.29,1.43,101.57,101.57,0,0,1-12.45-.28,109.26,109.26,0,0,1-24.66-5,99.83,99.83,0,0,1-23.16-11,93.81,93.81,0,0,1-19.69-17l6,2.76h-.83l6-2.76c-.74.84-1.5,1.65-2.26,2.48L203.17,291l-1.2,1.17-2.4,2.34-2.51,2.23-1.27,1.09-1.32,1-2.64,2c-1.82,1.27-3.59,2.62-5.49,3.75a94.54,94.54,0,0,1-11.61,6.29c-1,.44-2,.91-3,1.33l-3,1.23c-1,.4-2.05.73-3.07,1.1s-2.05.71-3.09,1a111.67,111.67,0,0,1-25.23,4.83,108.07,108.07,0,0,1-12.72.2A73.53,73.53,0,0,1,112,319.13a240.66,240.66,0,0,0,23.77-6.45,176.8,176.8,0,0,0,22.13-8.82,126.72,126.72,0,0,0,19.89-11.81c1.55-1.11,3-2.3,4.52-3.46l2.16-1.84,1.08-.91,1-1a93.53,93.53,0,0,0,7.89-8L197,274l3.52,0h.83l3.63,0,2.41,2.74a102.82,102.82,0,0,0,7.68,8c1.31,1.3,2.76,2.46,4.14,3.69l2.18,1.73,1.08.89,1.12.84,2.25,1.67,2.31,1.58c1.55,1.05,3.13,2.09,4.74,3.08,3.21,2,6.55,3.8,10,5.52a167.26,167.26,0,0,0,21.51,8.92A215.59,215.59,0,0,0,287.57,319.13Z" transform="translate(-111.62 -55.39)"/></svg>